<svg xmlns="http://www.w3.org/2000/svg" viewBox="0 0 900 1125" role="img" aria-label="Gym Content hero thumbnail">
  <defs>
    <linearGradient id="bg" x1="0" y1="0" x2="1" y2="1">
      <stop offset="0" stop-color="#2a120a"/>
      <stop offset=".38" stop-color="#111"/>
      <stop offset="1" stop-color="#020202"/>
    </linearGradient>
    <radialGradient id="glow" cx=".76" cy=".28" r=".7">
      <stop offset="0" stop-color="#ff7a1a" stop-opacity=".76"/>
      <stop offset=".5" stop-color="#ff4d12" stop-opacity=".2"/>
      <stop offset="1" stop-color="#020202" stop-opacity="0"/>
    </radialGradient>
    <linearGradient id="bar" x1="0" y1="0" x2="1" y2="0">
      <stop offset="0" stop-color="#fff" stop-opacity=".08"/>
      <stop offset=".5" stop-color="#fff" stop-opacity=".9"/>
      <stop offset="1" stop-color="#fff" stop-opacity=".08"/>
    </linearGradient>
  </defs>
  <rect width="900" height="1125" fill="url(#bg)"/>
  <rect width="900" height="1125" fill="url(#glow)"/>
  <g opacity=".18" stroke="#fff">
    <path d="M0 140h900M0 280h900M0 420h900M0 560h900M0 700h900M0 840h900M0 980h900"/>
    <path d="M112 0v1125M224 0v1125M336 0v1125M448 0v1125M560 0v1125M672 0v1125M784 0v1125"/>
  </g>
  <circle cx="690" cy="260" r="86" fill="#020202" opacity=".7"/>
  <path d="M646 260c48-60 104 60 0 0 48 60 104-60 0 0z" fill="none" stroke="#ff4d12" stroke-linecap="round" stroke-width="14" opacity=".9"/>
  <rect x="90" y="660" width="720" height="22" fill="url(#bar)" opacity=".9"/>
  <g fill="none" stroke="#fff" stroke-linecap="round" stroke-width="20" opacity=".72">
    <path d="M232 542h436"/>
    <path d="M190 470v144M710 470v144"/>
    <path d="M150 500v84M750 500v84"/>
  </g>
  <text x="92" y="780" fill="#ff4d12" font-family="Arial, sans-serif" font-size="22" font-weight="900" letter-spacing="7">COMMERCIAL PRODUCTION</text>
  <text x="92" y="866" fill="#fff" font-family="Arial, sans-serif" font-size="86" font-weight="900">FITNESS</text>
  <text x="92" y="954" fill="#fff" font-family="Arial, sans-serif" font-size="86" font-weight="900">VISUAL</text>
  <text x="92" y="1042" fill="#fff" font-family="Arial, sans-serif" font-size="86" font-weight="900">SYSTEM</text>
</svg>
