<svg xmlns="http://www.w3.org/2000/svg" viewBox="0 0 1280 720" role="img" aria-label="Strength Campaign thumbnail">
  <defs>
    <linearGradient id="g" x1="1" y1="0" x2="0" y2="1">
      <stop offset="0" stop-color="#ff4d12"/>
      <stop offset=".38" stop-color="#111"/>
      <stop offset="1" stop-color="#020202"/>
    </linearGradient>
    <radialGradient id="r" cx=".34" cy=".48" r=".55">
      <stop offset="0" stop-color="#ff4d12" stop-opacity=".7"/>
      <stop offset=".62" stop-color="#ff4d12" stop-opacity=".1"/>
      <stop offset="1" stop-color="#020202" stop-opacity="0"/>
    </radialGradient>
  </defs>
  <rect width="1280" height="720" fill="#020202"/>
  <rect width="1280" height="720" fill="url(#g)" opacity=".9"/>
  <rect width="1280" height="720" fill="url(#r)"/>
  <g opacity=".2" stroke="#fff">
    <path d="M0 96h1280M0 192h1280M0 288h1280M0 384h1280M0 480h1280M0 576h1280"/>
    <path d="M128 0v720M256 0v720M384 0v720M512 0v720M640 0v720M768 0v720M896 0v720M1024 0v720M1152 0v720"/>
  </g>
  <g fill="none" stroke="#fff" stroke-width="18" opacity=".72">
    <circle cx="410" cy="360" r="106"/>
    <circle cx="870" cy="360" r="106"/>
    <path d="M516 360h248"/>
  </g>
  <text x="76" y="118" fill="#fff" font-family="Arial, sans-serif" font-size="26" font-weight="900" letter-spacing="8">COMMERCIAL CAMPAIGN</text>
  <text x="76" y="620" fill="#fff" font-family="Arial, sans-serif" font-size="72" font-weight="900">STRENGTH</text>
</svg>
