<svg xmlns="http://www.w3.org/2000/svg" viewBox="0 0 1280 720" role="img" aria-label="Facility Walkthrough thumbnail">
  <defs>
    <linearGradient id="g" x1="0" y1="0" x2="1" y2="1">
      <stop offset="0" stop-color="#262626"/>
      <stop offset=".48" stop-color="#020202"/>
      <stop offset="1" stop-color="#ff4d12"/>
    </linearGradient>
    <radialGradient id="r" cx=".78" cy=".66" r=".55">
      <stop offset="0" stop-color="#ff7a1a" stop-opacity=".58"/>
      <stop offset=".66" stop-color="#ff4d12" stop-opacity=".08"/>
      <stop offset="1" stop-color="#020202" stop-opacity="0"/>
    </radialGradient>
  </defs>
  <rect width="1280" height="720" fill="url(#g)"/>
  <rect width="1280" height="720" fill="url(#r)"/>
  <g opacity=".2" stroke="#fff">
    <path d="M0 120h1280M0 240h1280M0 360h1280M0 480h1280M0 600h1280"/>
    <path d="M160 0v720M320 0v720M480 0v720M640 0v720M800 0v720M960 0v720M1120 0v720"/>
  </g>
  <g fill="none" stroke="#fff" stroke-width="18" opacity=".68">
    <path d="M312 494V250h656v244"/>
    <path d="M408 494V338h144v156M728 494V338h144v156"/>
  </g>
  <text x="76" y="118" fill="#fff" font-family="Arial, sans-serif" font-size="26" font-weight="900" letter-spacing="8">FACILITY SHOWCASE</text>
  <text x="76" y="620" fill="#fff" font-family="Arial, sans-serif" font-size="72" font-weight="900">WALKTHROUGH</text>
</svg>
