<svg xmlns="http://www.w3.org/2000/svg" viewBox="0 0 1280 720" role="img" aria-label="Member Story thumbnail">
  <defs>
    <linearGradient id="g" x1="0" y1="1" x2="1" y2="0">
      <stop offset="0" stop-color="#ff4d12"/>
      <stop offset=".36" stop-color="#121212"/>
      <stop offset="1" stop-color="#020202"/>
    </linearGradient>
    <radialGradient id="r" cx=".54" cy=".4" r=".58">
      <stop offset="0" stop-color="#fff" stop-opacity=".16"/>
      <stop offset=".55" stop-color="#ff4d12" stop-opacity=".13"/>
      <stop offset="1" stop-color="#020202" stop-opacity="0"/>
    </radialGradient>
  </defs>
  <rect width="1280" height="720" fill="url(#g)"/>
  <rect width="1280" height="720" fill="url(#r)"/>
  <g opacity=".19" stroke="#fff">
    <path d="M0 120h1280M0 240h1280M0 360h1280M0 480h1280M0 600h1280"/>
    <path d="M160 0v720M320 0v720M480 0v720M640 0v720M800 0v720M960 0v720M1120 0v720"/>
  </g>
  <g fill="#fff" opacity=".72">
    <circle cx="534" cy="288" r="58"/>
    <path d="M430 488c18-92 54-146 104-146s86 54 104 146H430z"/>
    <circle cx="746" cy="288" r="58"/>
    <path d="M642 488c18-92 54-146 104-146s86 54 104 146H642z"/>
  </g>
  <text x="76" y="118" fill="#fff" font-family="Arial, sans-serif" font-size="26" font-weight="900" letter-spacing="8">DOCUMENTARY TONE</text>
  <text x="76" y="620" fill="#fff" font-family="Arial, sans-serif" font-size="72" font-weight="900">MEMBER STORY</text>
</svg>
