<svg xmlns="http://www.w3.org/2000/svg" viewBox="0 0 1280 720" role="img" aria-label="Cinematic Gym Promo thumbnail">
  <defs>
    <linearGradient id="g" x1="0" y1="0" x2="1" y2="1">
      <stop offset="0" stop-color="#ff4d12"/>
      <stop offset=".42" stop-color="#161616"/>
      <stop offset="1" stop-color="#020202"/>
    </linearGradient>
    <radialGradient id="r" cx=".72" cy=".34" r=".52">
      <stop offset="0" stop-color="#ff7a1a" stop-opacity=".72"/>
      <stop offset=".55" stop-color="#ff4d12" stop-opacity=".16"/>
      <stop offset="1" stop-color="#020202" stop-opacity="0"/>
    </radialGradient>
  </defs>
  <rect width="1280" height="720" fill="#020202"/>
  <rect width="1280" height="720" fill="url(#g)" opacity=".88"/>
  <rect width="1280" height="720" fill="url(#r)"/>
  <g opacity=".22" stroke="#fff">
    <path d="M0 120h1280M0 240h1280M0 360h1280M0 480h1280M0 600h1280"/>
    <path d="M160 0v720M320 0v720M480 0v720M640 0v720M800 0v720M960 0v720M1120 0v720"/>
  </g>
  <g fill="none" stroke="#fff" stroke-linecap="round" stroke-width="24" opacity=".75">
    <path d="M342 430h596"/>
    <path d="M290 330v200M990 330v200"/>
    <path d="M238 362v136M1042 362v136"/>
  </g>
  <text x="76" y="118" fill="#fff" font-family="Arial, sans-serif" font-size="26" font-weight="900" letter-spacing="8">KROO PRODUCTION</text>
  <text x="76" y="620" fill="#fff" font-family="Arial, sans-serif" font-size="72" font-weight="900">GYM PROMO</text>
</svg>
