<svg xmlns="http://www.w3.org/2000/svg" viewBox="0 0 1280 720" role="img" aria-label="Transformation Reels thumbnail">
  <defs>
    <linearGradient id="g" x1="1" y1="1" x2="0" y2="0">
      <stop offset="0" stop-color="#020202"/>
      <stop offset=".46" stop-color="#151515"/>
      <stop offset="1" stop-color="#ff4d12"/>
    </linearGradient>
    <radialGradient id="r" cx=".44" cy=".35" r=".6">
      <stop offset="0" stop-color="#ff4d12" stop-opacity=".55"/>
      <stop offset=".55" stop-color="#ff4d12" stop-opacity=".12"/>
      <stop offset="1" stop-color="#020202" stop-opacity="0"/>
    </radialGradient>
  </defs>
  <rect width="1280" height="720" fill="url(#g)"/>
  <rect width="1280" height="720" fill="url(#r)"/>
  <g opacity=".18" stroke="#fff">
    <path d="M0 90h1280M0 180h1280M0 270h1280M0 360h1280M0 450h1280M0 540h1280M0 630h1280"/>
    <path d="M128 0v720M256 0v720M384 0v720M512 0v720M640 0v720M768 0v720M896 0v720M1024 0v720M1152 0v720"/>
  </g>
  <g fill="none" stroke="#fff" stroke-width="22" opacity=".72">
    <path d="M338 472l220-220 160 160 224-224"/>
    <path d="M810 188h132v132"/>
  </g>
  <text x="76" y="118" fill="#fff" font-family="Arial, sans-serif" font-size="26" font-weight="900" letter-spacing="8">SOCIAL RETENTION</text>
  <text x="76" y="620" fill="#fff" font-family="Arial, sans-serif" font-size="72" font-weight="900">REELS</text>
</svg>
